<?xml version="1.0" encoding="utf-8"?>
<!-- Generator: Adobe Illustrator 22.0.0, SVG Export Plug-In . SVG Version: 6.00 Build 0)  -->
<svg version="1.1" id="Warstwa_1" xmlns="http://www.w3.org/2000/svg" xmlns:xlink="http://www.w3.org/1999/xlink" x="0px" y="0px"
	 viewBox="0 0 173.2 200" style="enable-background:new 0 0 173.2 200;" xml:space="preserve">
<style type="text/css">
	.st0{display:none;fill:#1FA8D7;}
	.st1{display:none;fill:#FFFFFF;}
	.st2{display:none;opacity:4.000000e-02;stroke:#FFFFFF;stroke-miterlimit:10;enable-background:new    ;}
	.st3{display:none;opacity:8.000000e-02;stroke:#FFFFFF;stroke-miterlimit:10;enable-background:new    ;}
	.st4{display:none;fill-opacity:0;}
	.st5{fill:#164194;}
	.st6{fill:#F18700;}
</style>
<polygon class="st0" points="0,150 0,50 86.6,0 173.2,50 173.2,150 86.6,200 "/>
<polygon class="st1" points="86.6,133.3 57.7,116.7 57.7,83.3 86.6,66.7 115.5,83.3 144.3,66.7 86.6,33.3 28.9,66.7 28.9,133.3 
	86.6,166.7 144.3,133.3 115.5,116.7 "/>
<polygon class="st2" points="0,50 86.6,100 86.6,0 "/>
<polygon class="st2" points="0,150 86.6,200 86.6,100 "/>
<polygon class="st3" points="86.6,100 173.2,150 173.2,50 "/>
<polygon class="st4" points="86.6,100 0,50 0,150 "/>
<polygon class="st3" points="173.2,150 86.6,100 86.6,200 "/>
<polygon class="st3" points="173.2,50 86.6,0 86.6,100 "/>
<g>
	<path class="st5" d="M30.3,18.1c2.9-1.3,8.3-3.2,15.4-3.4C49,14.7,55.2,15,62,17.9C74.9,23.5,80,34.2,80.8,36
		c0.9,2.1,4.2,9.7,2.5,19.2c-0.8,4.8-2.7,8.4-4,11.1c-1,1.7-1.9,3-2.7,3.9c-0.9,1.1-1.7,2-2.2,2.6c-0.3,0.3-1,1.1-2.3,2.4
		c-1.5,1.5-2.6,2.5-3.2,3c-2.3,2.1-3.9,4.1-5.1,5.5c-1.2,1.5-3.8,4.8-6.3,9.6c-1.7,3.3-2.8,6.2-3.5,8.4c-1,3.1-2.4,8.5-2.5,15.3
		c0,2.7,0.1,6.3,0.9,10.4c-2-1-4.6-2.5-7.4-4.7c-2.5-2-5.7-5.2-8.2-9.7c-1.1-1.9-2.7-5-3.6-9.2c-0.4-1.8-0.9-4.9-0.8-8.6
		c0.2-4.2,1.1-7.5,1.7-9.2c0.3-0.7,1.1-3.1,2.7-5.9c0.6-1,1.6-2.8,3.1-4.6c0.1-0.1,0.1-0.1,1.4-1.6c1.7-1.9,2.5-2.9,2.7-3.1
		c1.4-1.7,2.3-3.1,2.8-3.9c0.7-1.2,1.9-3.3,2.9-6.2c0.4-1.1,1.6-4.9,1.7-10c0-2.1-0.1-5.1-0.9-8.5c-0.7-2.8-1.9-6.5-4.4-10.4
		C41.3,23.8,34,19.8,30.3,18.1"/>
	<path class="st6" d="M110.8,9.8c1.4,0.7,3.1,1.6,5,2.8c1.6,1,4.4,2.8,7.4,5.4c5.8,4.9,9.3,9.8,11,12.3c2.6,3.9,4.2,7.5,5.2,9.9
		c1,2.5,2.1,5.8,2.8,9.6c1.4,7.3,0.9,13.1,0.6,16c-0.1,0.9-0.5,4.4-1.5,9c-0.2,0.8-0.5,2.3-1,3.8c-1.9,6.4-4.4,11-6.2,14.3
		c-2.2,4-4.4,7.3-6.1,9.7c-1.6,2.2-3.2,4.4-4.9,6.7c-1.6,2.2-3.2,4.4-4.7,6.6c-3.8,5.4-7.1,10.1-8.1,11.5
		c-4.7,6.8-11.8,17.1-18.4,30.1c-2.1,4.1-4.1,8.2-5.4,13.6c-0.3,1.2-1.2,5.3-1.4,10.5c-0.1,3.1,0,5,0.1,6.4c0.2,1.7,0.5,3.2,0.7,4.3
		c-1.6-1.1-3.7-2.5-6-4.3c-3.4-2.7-6-5.2-7.4-6.6c-3.9-4-9.9-11.9-13-22.8c-0.5-1.9-2.4-9-1.9-17.9c0.2-4.2,0.9-7.9,1.3-9.9
		c1-5.4,2.2-9.3,2.6-10.5c0.2-0.6,2.5-7.8,6.2-14.8c1.5-2.7,3-5.2,3.2-5.5c0.5-0.8,1.2-1.9,2.1-3.1c2.1-3.1,4.1-5.5,5.5-7.2
		c1.8-2.1,3.4-3.8,4.5-4.9c0.7-0.7,3.1-3.2,6.9-6.4c3.9-3.3,4.4-3.3,7.2-5.9c1-0.9,3.6-3.2,6.2-6.3c4.3-5.2,6.5-9.9,7.5-12.3
		c2.9-6.5,3.9-12,4.3-14.8c0.5-3.5,0.8-8.2,0.1-13.8C114.3,18.8,112.5,13.6,110.8,9.8"/>
</g>
</svg>
